<svg xmlns="http://www.w3.org/2000/svg" viewBox="0 0 400 160" fill="none">
  <defs>
    <linearGradient id="grad1" x1="0" y1="0" x2="1" y2="1">
      <stop offset="0%" stop-color="#2873F5"/>
      <stop offset="100%" stop-color="#5BA3FF"/>
    </linearGradient>
  </defs>
  <!-- Cloud icon embracing Z mark -->
  <g transform="translate(30,18)">
    <path d="M56 62c-12 0-22-8-24-19-10-1-18-9-18-19 0-11 8-20 19-21 2-12 13-21 25-21 9 0 17 4 22 11 4-2 8-2 12-2 14 0 26 10 28 24 6 2 10 8 10 14 0 8-6 15-14 16v1c0 9-7 16-16 16H56z" fill="url(#grad1)"/>
    <text x="56" y="62" text-anchor="middle" font-family="Arial,Helvetica,sans-serif" font-weight="900" font-size="28" fill="white">Z</text>
  </g>
  <!-- Brand text -->
  <text x="205" y="98" text-anchor="middle" font-family="Arial,Helvetica,sans-serif" font-weight="800" font-size="38" fill="#1a1a2e" letter-spacing="2">ZPrintPro</text>
  <text x="205" y="130" text-anchor="middle" font-family="Arial,Helvetica,sans-serif" font-weight="400" font-size="18" fill="#666" letter-spacing="6">智 印 雲</text>
</svg>
